<svg id="Layer_1" data-name="Layer 1" xmlns="http://www.w3.org/2000/svg" xmlns:xlink="http://www.w3.org/1999/xlink" viewBox="0 0 538 768">
  <defs>
    <style>.cls-1{fill:#87816e;}.cls-2{fill:url(#linear-gradient);}.cls-3{fill:url(#linear-gradient-2);}.cls-4{fill:url(#linear-gradient-3);}.cls-5{fill:url(#linear-gradient-4);}.cls-6{fill:#2f7fb8;}.cls-7{fill:#3fa9f5;}.cls-8{fill:url(#linear-gradient-5);}.cls-9{fill:url(#linear-gradient-6);}
    </style>
    <linearGradient id="linear-gradient" x1="-208.56" y1="105.88" x2="-206.56" y2="105.88" gradientTransform="translate(54037.79 -26935.92) scale(259.04)" gradientUnits="userSpaceOnUse">
      <stop offset="0" stop-color="#c6b96d"/>
      <stop offset="1" stop-color="#a67c52"/>
    </linearGradient>
    <linearGradient id="linear-gradient-2" x1="-190.66" y1="117.11" x2="-188.65" y2="117.11" gradientTransform="translate(8468.61 -4469.92) scale(43.87)" xlink:href="#linear-gradient"/>
    <linearGradient id="linear-gradient-3" x1="-164.17" y1="128.98" x2="-162.16" y2="128.98" gradientTransform="translate(3955.63 -2223.17) scale(22.03)" xlink:href="#linear-gradient"/>
    <linearGradient id="linear-gradient-4" x1="-193.11" y1="111.03" x2="-191.11" y2="111.03" gradientTransform="translate(11177.55 -5919.45) scale(56.07)" xlink:href="#linear-gradient"/>
    <linearGradient id="linear-gradient-5" x1="-202.09" y1="107.66" x2="-200.09" y2="107.66" gradientTransform="translate(20124.29 -10381.66) scale(98.66)" gradientUnits="userSpaceOnUse">
      <stop offset="0" stop-color="#fff"/>
      <stop offset="1" stop-color="#3fa9f5"/>
    </linearGradient>
    <linearGradient id="linear-gradient-6" x1="-179.47" y1="122.33" x2="-177.47" y2="122.33" gradientTransform="translate(5795.97 -3132.71) scale(30.94)" xlink:href="#linear-gradient-5"/>
  </defs>
  <title>
    pylon
  </title>
  <path class="cls-1" d="M74.83,323.63l13.35,8S13.44,409,13.44,515.81c0,0,4,96.09,64.06,152.14l-9.34,8S3.44,610.57,4.77,517.15C4.77,517.15,6.77,412.38,74.83,323.63Z"/>
  <path d="M74.83,323.63l-.52.86,13.35,8,.52-.86-.72-.7c-.06.09-75,77.62-75,184.87v0c0,.05,1,24.14,9.54,55.27s24.6,69.34,54.83,97.56l.68-.73-.65-.76-9.34,8,.65.76.71-.7-.7-.73C61.28,667.24,5.73,605.7,5.75,520q0-1.41,0-2.84h0s0-.4,0-1.18C6.27,504.25,12,407.16,75.63,324.24l-.79-.61-.52.86.52-.86L74,323C5.76,412.08,3.78,517,3.77,517.13v0q0,1.44,0,2.87c0,92.38,63.64,156.58,63.7,156.67l.66.66L79,668l-.82-.76c-29.83-27.83-45.79-65.7-54.27-96.62a297.43,297.43,0,0,1-7.92-39c-.65-4.92-1-8.88-1.27-11.6-.11-1.36-.18-2.41-.23-3.12s-.06-1.07-.06-1.07l-1,0h1c0-53.15,18.61-99,37.24-131.63A317.16,317.16,0,0,1,77.29,346c3.49-4.45,6.4-7.87,8.43-10.19,1-1.16,1.81-2,2.36-2.62l.82-.88.87-.91-15.19-9.11L74,323Z"/>
  <path class="cls-2" d="M87.83,331.91l10.4,11.34-41.3,51.93s-5.26,20.71,14.9,13.28c0,0,65.84-161.23,79.63-169.24h18.13s75.78,70.07,94.09,238.22h43V396.37l15.59-.19s21.22,22.28,26.53,75.34c0,0,78.53,0,102.93-21.22l-8.49-56.8,8.49-12.14h26.1s60.92,74.25,53.49,182.49c0,0-8.49,112.48-73.22,176.16l-24.41-19.1s28.65-72.16,23.35-151.75c0,0-38.2,18-80.65,21.22l-35,6.74s-2.12,28.47-22.28,54.49H305.72l-1.44-54.87-40.59,2.12s-8.22,87-19.89,102.93c0,0-81.71-132.65-109.3-132.65,0,0-34,1.06-37.14,63.67,0,0,2.12,23.35,6.37,38.2,0,0-54.12-62.61-52-129.46L40,528.82s-2.41,78.53,48.14,135.83L77.5,668s-56.7-48.42-64.06-152.14C13.44,515.81,11.47,414.08,87.83,331.91Z"/>
  <path d="M87.83,331.91l-.74.68,9.82,10.71L56,394.73l-.05.21a25.14,25.14,0,0,0-.65,5.58A13.12,13.12,0,0,0,57,407.43a7.37,7.37,0,0,0,2.81,2.63,9.5,9.5,0,0,0,4.51,1,23.27,23.27,0,0,0,7.89-1.67l.41-.15.17-.41s1-2.52,2.85-6.94c6.39-15.48,22.57-54.3,38.65-90.11,8-17.9,16.06-35.06,22.8-48.15,3.37-6.55,6.43-12.08,9-16.17a54.79,54.79,0,0,1,3.46-5,10.44,10.44,0,0,1,2.43-2.4l-.5-.87v1h18.13v-1l-.68.73.21.19c4.33,4.15,75.85,74.76,93.57,237.4l.1.89h44.94V397.36l14.61-.18v-1l-.72.69,0,.05c1.13,1.23,21.09,23.53,26.21,74.7l.09.9h.91a409.62,409.62,0,0,0,42.43-2.66,234.86,234.86,0,0,0,34.39-6.33c10.87-3,20.46-7,26.77-12.48l.41-.36-8.51-57,8-11.39h25.58v-1l-.77.63.59.75c5.88,7.51,53.31,71.07,53.3,162.79q0,8.95-.63,18.25h0s0,.43-.11,1.26a373.06,373.06,0,0,1-14.2,69.58c-10.51,34.59-28.46,75-58.62,104.68l.7.71.62-.79-24.41-19.1-.62.79.93.37c0-.07,24.07-60.6,24.07-132.08,0-6.62-.21-13.33-.66-20.1l-.1-1.47-1.33.63s-.58.28-1.7.77c-7.83,3.47-41.66,17.59-78.59,20.36h-.06l-35.83,6.9-.06.76s0,.1,0,.31c-.29,3.12-3.33,29.5-22.05,53.65l.79.61v-1H306.69l-1.45-54.92-42.48,2.22-.08.86s-.13,1.35-.38,3.76c-.87,8.43-3.19,29.72-6.57,50.63-1.69,10.45-3.64,20.81-5.81,29.4s-4.56,15.42-7,18.65l.81.59.85-.53s-20.44-33.19-44.34-66.38c-12-16.6-24.77-33.2-36.36-45.69A126.31,126.31,0,0,0,147.7,574c-5-3.67-9.36-5.88-13.22-5.9h0c-.14,0-8.9.31-18,8.62s-18.5,24.53-20.09,56v.14s2.12,23.37,6.4,38.39l1-.27.76-.65-.57-.68a262.11,262.11,0,0,1-27.77-41.87c-12.11-22.62-23.48-52-23.47-82.4q0-1.91.06-3.82v-.41L39.11,526.33,39,528.79s0,.61,0,1.74c0,11.88,2,82.11,48.41,134.78l.75-.66-.3-1L77.21,667l.3,1,.65-.76-.15-.13c-3.22-2.84-56.45-51.19-63.56-151.32l-1,.07,1,0s0-.23,0-.71c0-9.13,1.79-104.69,74.12-182.5l-.73-.68-.74.68.74-.68-.73-.68c-72.88,78.44-74.65,174.5-74.66,183.86,0,.49,0,.74,0,.75v.05C19.84,620,76.74,668.62,76.85,668.71l.42.36L90,665.15l-1-1.16C43,612,41,542.21,41,530.54c0-1.11,0-1.68,0-1.68l-1,0-.74.68L51,542.23l.74-.68-1,0q-.06,1.94-.06,3.88c0,33,13.1,64.5,26.16,87.82A255.05,255.05,0,0,0,103,671.68l3,3.43-1.24-4.36a192,192,0,0,1-4.75-24.53c-.53-3.84-.93-7.21-1.19-9.62s-.4-3.86-.4-3.86l-1,.09,1,.05c1.59-31.14,10.79-46.75,19.44-54.62a32.81,32.81,0,0,1,11.66-7,24.07,24.07,0,0,1,3.73-.94c.44-.07.79-.11,1-.13l.25,0h.07l0-1v1c3,0,7.23,1.92,12,5.5,8.4,6.25,18.69,17.32,29.32,30.38,16,19.59,32.74,43.68,45.53,62.85,6.39,9.59,11.79,18,15.58,23.91,1.9,3,3.4,5.36,4.42,7l1.57,2.53.78,1.27.88-1.2a36.31,36.31,0,0,0,4.35-9.26c4.74-13.81,8.66-37.3,11.41-57.4S264.67,599,264.67,599l-1-.09.05,1,39.57-2.07,1.44,54.81h14.88l.3-.39c20.35-26.29,22.48-54.93,22.49-55l-1-.07.19,1,35-6.74-.19-1,.07,1c42.68-3.21,80.94-21.29,81-21.32l-.43-.91-1,.07c.45,6.72.65,13.39.65,20,0,35.52-6,68.38-12,92.34-3,12-6,21.74-8.23,28.5-1.12,3.38-2.06,6-2.71,7.79-.33.89-.58,1.57-.76,2l-.26.68-.28.7,25.69,20.1.63-.62c32.56-32,50.9-76.22,61.15-112.4s12.37-64.35,12.37-64.4v0h0q.64-9.37.63-18.38c0-98.59-54.28-164.72-54.34-164.81l-.3-.37h-27.1l-9,12.89,8.55,57.2,1-.15-.66-.76c-5.9,5.14-15.27,9.1-26,12.06C409,466,390,468.29,374.9,469.4c-7.53.56-14,.84-18.68,1-2.32.07-4.16.1-5.43.12l-1.95,0v1l1-.1c-5.33-53.3-26.68-75.81-26.8-75.93l-.3-.32-17,.21v81.06h-42v1l1-.11C246.34,308.9,170.4,238.6,170.27,238.49l-.29-.27H151.19l-.23.14a13.65,13.65,0,0,0-3.46,3.48c-4.76,6.23-11.84,19.64-19.9,36.37C103.45,328.37,70.91,408.08,70.9,408.08l.93.38-.35-.94a21.34,21.34,0,0,1-7.2,1.55,7.51,7.51,0,0,1-3.58-.78A5.78,5.78,0,0,1,58,405.07a13.14,13.14,0,0,1-.71-4.55,23.31,23.31,0,0,1,.3-3.6c.07-.47.15-.85.2-1.1l.07-.3,0-.09-1-.25.78.62,41.83-52.6L87.84,330.43l-.74.79Z"/>
  <path class="cls-3" d="M191.74,624.91S192.85,707.1,174.81,758c0,0-5.31,20.16-15.92,0,0,0-52.62-86.85-55-160.15,0,0,8.27-24.49,30.56-28.74C134.48,569.15,150.9,565.68,191.74,624.91Z"/>
  <path d="M191.74,624.91h-1s0,1,0,2.78c0,7.38-.22,28.59-2.44,53.61s-6.46,53.85-14.45,76.39v.08l0,.08a22.77,22.77,0,0,1-1.88,4.58A10,10,0,0,1,170,765a3.4,3.4,0,0,1-2.26,1,5,5,0,0,1-3.29-1.69,26.21,26.21,0,0,1-4.67-6.74v0l0,0-.59-1a503.69,503.69,0,0,1-28.47-57.37C118.11,669.26,106,632,104.93,597.85l-1,0,.95.32L105,598a53.36,53.36,0,0,1,7.62-13.48c4.79-6.16,12-12.41,22.09-14.34h0l-.07-.33.05.34h0l-.07-.33.05.34a2.51,2.51,0,0,1,.36,0c1.28,0,6.11.57,15.21,7.8s22.43,21.11,40.67,47.56l.82-.57h0l.82-.57c-18.31-26.56-31.75-40.58-41.07-48s-14.57-8.23-16.46-8.24a3.85,3.85,0,0,0-.76.06l.21,1-.19-1c-11.48,2.19-19.32,9.58-24.26,16.35a53.93,53.93,0,0,0-7.06,13l-.06.17v.18c1.18,36.88,15,77,28.44,107.93A489.5,489.5,0,0,0,158,758.56l.86-.52-.89.47a28.07,28.07,0,0,0,5.06,7.26,6.9,6.9,0,0,0,4.67,2.24,5.5,5.5,0,0,0,3.78-1.68,15.35,15.35,0,0,0,3.22-5.06,24.58,24.58,0,0,0,1-3l-1-.25.94.33c8.08-22.83,12.32-51.77,14.55-76.88s2.45-46.37,2.45-53.79c0-1.82,0-2.81,0-2.81v-.3l-.17-.25Z"/>
  <path class="cls-4" d="M382.72,589.71s-14.78,47.89-24.33,57.9H347.75s-11.24-23.81-8.79-37.15l2.45-13.34Z"/>
  <path d="M382.72,589.71l-1-.3s-.23.74-.65,2.07c-1.48,4.64-5.3,16.39-9.79,28.06-2.25,5.83-4.66,11.64-7,16.52s-4.69,8.83-6.63,10.85l.72.69v-1H347.75v1l.91-.43-.38-.84a134.63,134.63,0,0,1-5-12.94c-2-6-3.67-13-3.67-18.73a22.38,22.38,0,0,1,.33-4L342.27,598l40.63-7.28-.18-1-1-.3,1,.3-.18-1-42,7.53-2.57,14a24.33,24.33,0,0,0-.37,4.38c0,7,2.33,15.3,4.63,21.9s4.6,11.45,4.61,11.48l.27.57h11.7l.3-.31c2.55-2.69,5.26-7.6,8-13.54C375.36,617,383.67,590,383.68,590l.48-1.57-1.62.29Z"/>
  <path class="cls-5" d="M348.88,165.9l22.27-22.28s15.91-7.43,18,11.14l62.6,168.88s12.73,40.78,8.48,57.72h-8.41l-8.57,12.14,8.49,56.8s-15.17,13-46.77,16.63l-34,3.79s12.75-81.78,11.76-90.37c0,0,3.57-117.88-22.05-169.88C360.67,210.47,348.92,183.94,348.88,165.9Z"/>
  <path d="M348.88,165.9l.71.71,22.27-22.28-.71-.71.42.91.11-.05a17.14,17.14,0,0,1,6.28-1.32,9.05,9.05,0,0,1,6.22,2.18c1.85,1.66,3.42,4.54,4,9.54V155l62.65,169,.94-.35-1,.3s.14.46.4,1.31c1.78,5.95,8.92,31,8.91,47.57a35,35,0,0,1-.84,8.29l1,.24v-1h-8.93l-9.1,12.89,8.55,57.2,1-.15-.65-.76,0,0c-.81.68-15.82,12.92-46.2,16.37l-34,3.79.11,1,1,.15s3-19,5.91-39.58c1.48-10.31,3-21,4.06-30s1.85-16.21,1.85-19.66a12.51,12.51,0,0,0-.06-1.37l-1,.11,1,0s.17-5.62.17-14.93c0-16.7-.55-45.31-3.6-74.86s-8.61-60-18.72-80.57l-.9.44.92-.41s-.18-.4-.5-1.16c-1.12-2.64-3.92-9.52-6.44-17.68s-4.76-17.62-4.77-25.33h-1l.71.71-.71-.71h-1c0,9.23,3,20.42,6,29.36s5.91,15.59,5.92,15.61v0c9.92,20.11,15.49,50.46,18.53,79.89s3.59,58,3.59,74.65c0,4.64,0,8.36-.08,10.92s-.08,3.94-.08,3.95v.14a10.65,10.65,0,0,1,0,1.14c0,3.21-.73,10.46-1.84,19.41-1.66,13.45-4.15,30.84-6.23,44.86-1,7-2,13.18-2.65,17.6s-1.09,7.07-1.09,7.08l-.2,1.29,35.35-3.93c31.84-3.61,47.2-16.77,47.31-16.87l.42-.36-8.51-57,8-11.39H461l.19-.76a36.89,36.89,0,0,0,.9-8.78c0-9.77-2.36-22.1-4.7-32s-4.69-17.43-4.69-17.45v0l-62.61-168.9-.94.35,1-.11c-.6-5.31-2.34-8.74-4.65-10.81a11.05,11.05,0,0,0-7.55-2.69,19,19,0,0,0-7.24,1.56l-.16.07-22.68,22.7v.42Z"/>
  <path class="cls-6" d="M370.12,235.28l7-25.87s53.76,112.84,61.76,152.81v18.13l-56-9.65S381.12,263.78,370.12,235.28Z"/>
  <path d="M370.12,235.28l1,.26,7-25.87-1-.26-.9.43s.84,1.76,2.32,4.92c5.2,11.07,18.3,39.28,31,69.1s24.93,61.25,28.39,78.56l1-.2h-1v16.95L383,369.72l-.17,1,1,0s-.44-26.75-2.25-57.07c-.91-15.16-2.16-31.21-3.87-45.28s-3.88-26.12-6.69-33.42l-.93.36,1,.26-1-.26-.93.36c2.69,7,4.87,19,6.57,32.95,2.56,21,4.09,46.55,5,66.83.44,10.14.73,19,.9,25.26s.23,10,.23,10v.83l58,10V362.12l0-.1c-4.05-20.18-19.5-58.36-33.95-91.6S378,209,378,209l-1.17-2.45-7.74,28.8.12.3Z"/>
  <path class="cls-6" d="M493.89,449.42h8s17.79,48,13.55,78.07H505.9S515.84,500.54,493.89,449.42Z"/>
  <path d="M493.89,449.42v1h8v-1l-.94.35s.22.59.6,1.69c2.71,7.69,13.55,40.27,13.54,65.9a71.86,71.86,0,0,1-.64,10l1,.14v-1H505.9v1l.94.35c0-.1,2.31-6.31,2.31-18.31,0-13.25-2.77-33.56-14.34-60.5l-.92.4v0l-.92.39c11.47,26.71,14.17,46.74,14.18,59.71A72.66,72.66,0,0,1,506,522.78c-.28,1.47-.55,2.58-.75,3.31-.1.36-.19.64-.24.81l-.06.19,0,.05-.5,1.35h11.85l.12-.86a73.8,73.8,0,0,0,.66-10.27c0-29.88-14.25-68.23-14.26-68.29l-.24-.65H492.37l.6,1.4Z"/>
  <path class="cls-6" d="M499.53,551.11l9.55,18s-1.73,70.08-15.19,91.3C493.89,660.41,503.77,559.6,499.53,551.11Z"/>
  <path d="M499.53,551.11l-.88.47,9.55,18,.88-.47-1,0s0,1.09-.1,3c-.26,6.83-1.08,24.23-3.31,42.21a246.34,246.34,0,0,1-4.49,26.14c-1.91,8-4.29,14.92-7.13,19.39l.85.54,1,.1s6.7-68.3,6.7-97.31c0-3.12-.08-5.79-.25-7.89-.09-1.05-.2-2-.34-2.73a7.48,7.48,0,0,0-.57-1.91l-.9.45-.88.47.88-.47-.9.45a5.74,5.74,0,0,1,.39,1.39,64.78,64.78,0,0,1,.56,10.26c0,14.38-1.67,38.68-3.35,59.36-.84,10.34-1.67,19.78-2.3,26.63-.31,3.43-.58,6.21-.76,8.13s-.29,3-.29,3l-.41,4.18,2.25-3.55c3.48-5.5,6.11-13.93,8.19-23.54,6.19-28.81,7.15-68.24,7.16-68.27v-.26l-9.67-18.23-1.78.92Z"/>
  <path class="cls-6" d="M262.68,576.54v14s143.53-1.32,175.81-14l18.37-7.39V556.52s-7.2,4.77-26.3,4.77L409.33,537.5H389.79l-7.07-25.65s78.21-15.82,78.41-22.23l-4.05-18.89s-59.62,25.21-96.91,24.15c0,0-71.47,5.62-97.49,4.93v14.68l98.09.55V542.5l-98.09-2,1,18,136.1-1.06,18,11.63S367.52,580.74,262.68,576.54Z"/>
  <path d="M262.68,576.54h-1v15h1s35.9-.33,75.84-2.25c20-1,41-2.31,59-4.23s33.07-4.36,41.35-7.61l19-7.64V554.65l-1.55,1h0c-.27.17-7.4,4.59-25.75,4.6v1l.75-.67L409.78,536.5H390.56l-6.87-24.92-1,.27.2,1s19.57-4,39.17-8.72c9.8-2.38,19.61-5,27-7.36a74.86,74.86,0,0,0,9-3.44,14.62,14.62,0,0,0,2.7-1.61,4.45,4.45,0,0,0,.86-.88,2.16,2.16,0,0,0,.42-1.17v-.12l-4.33-20.19-1.11.47s-.88.37-2.52,1c-5.71,2.31-20.52,8.08-38,13.27s-37.53,9.8-53.71,9.79q-1.17,0-2.31,0h-.11s-4,.31-10.37.78c-19.2,1.4-60.37,4.21-82.12,4.21-1.77,0-3.41,0-4.9-.06l-1,0v16.7l98.09.55v25.46l-98.15-2,1.11,20.07,136.76-1.07L417.27,570l.54-.84-.23-1-.41.09c-4.17.9-40.18,8.22-110.18,8.22-13.49,0-28.25-.27-44.29-.91l-1,0v1h1l0,1c16.06.64,30.85.92,44.37.92,74.81,0,111-8.35,111-8.37l2.31-.53-20.28-13.08-135.45,1.06-.89-16,98,2V514l-98.09-.55V499.8h-1l0,1c1.51,0,3.17.06,5,.06,29.18,0,92.63-5,92.65-5l-.08-1,0,1q1.17,0,2.36,0c18.9,0,42.59-6.08,61.62-12.14s33.33-12.11,33.35-12.12l-.39-.92-1,.21,4.05,18.89,1-.21-1,0h.15l-.15,0v0h.15l-.15,0,0,0a3.59,3.59,0,0,1-1.14,1,35.39,35.39,0,0,1-6.32,2.84c-9.93,3.63-27.5,8-42.54,11.46-7.52,1.73-14.42,3.22-19.44,4.29s-8.14,1.7-8.15,1.7l-1.05.21L389,538.5h19.85l21.22,23.78h.45c19.27,0,26.69-4.82,26.86-4.93l-.55-.83h-1v12l-17.74,7.13h0c-7.86,3.1-22.87,5.58-40.83,7.48-26.95,2.86-60.61,4.48-87.53,5.38-13.46.45-25.23.72-33.64.88-4.2.08-7.57.13-9.88.16l-3.57,0v1h1v-14h-1l0,1Z"/>
  <polygon class="cls-6" points="369.97 592.73 354.15 633.59 341.75 633.59 338.96 610.45 341.41 597.11 369.97 592.73"/>
  <polygon points="369.97 592.73 369.04 592.37 353.46 632.59 342.64 632.59 339.98 610.48 342.27 597.99 370.12 593.72 369.97 592.73 369.04 592.37 369.97 592.73 369.82 591.74 340.56 596.23 337.95 610.42 340.86 634.59 354.83 634.59 371.53 591.48 369.82 591.74 369.97 592.73"/>
  <rect class="cls-7" x="360.77" y="503.47" width="20.02" height="42.04"/>
  <polygon points="360.77 503.47 360.77 504.47 379.78 504.47 379.78 544.5 361.77 544.5 361.77 503.47 360.77 503.47 360.77 504.47 360.77 503.47 359.77 503.47 359.77 546.51 381.79 546.51 381.79 502.47 359.77 502.47 359.77 503.47 360.77 503.47"/>
  <path class="cls-6" d="M56.48,470.44v-12s-7.81-16.15-19.63-6.06a32,32,0,0,0-5.3,6.06c-14.74,21.09,0,54.48,0,54.48s13.79,13.8,24.94,6.37V500.46s-21.75.66-21.75-15.2C34.73,485.26,29.42,458.74,56.48,470.44Z"/>
  <path d="M56.48,470.44h1V458.2l-.1-.21A24.39,24.39,0,0,0,54,453.08a17.18,17.18,0,0,0-4-3.42,10.62,10.62,0,0,0-5.49-1.61c-2.58,0-5.42,1-8.36,3.56a33,33,0,0,0-5.47,6.24C25.66,465.11,24,473.72,24,481.92c0,16.41,6.61,31.32,6.64,31.39l.08.17.13.13A38.06,38.06,0,0,0,36.42,518c3.36,2.19,7.91,4.44,12.78,4.44A13.9,13.9,0,0,0,57,520.11l.45-.3V499.43l-1,0h-.33a33.54,33.54,0,0,1-11.39-2,15.6,15.6,0,0,1-6.29-4.26,11.8,11.8,0,0,1-2.71-7.91v-.1l0-.1s0-.11-.06-.34a27.75,27.75,0,0,1-.34-4.34,16.22,16.22,0,0,1,1.75-7.94,7.6,7.6,0,0,1,2.81-2.85,9.67,9.67,0,0,1,4.9-1.15c2.8,0,6.52.82,11.32,2.9l1.4.6v-1.52h-1l.4-.92c-5-2.15-8.93-3.06-12.12-3.06a11.67,11.67,0,0,0-5.89,1.41,10.35,10.35,0,0,0-4.55,5.78,20.77,20.77,0,0,0-1,6.74,28.42,28.42,0,0,0,.44,5.07l1-.2h-1a13.82,13.82,0,0,0,3.18,9.2c2.9,3.42,7.18,5.13,11,6a37.6,37.6,0,0,0,8.25,1h.39l0-1h-1v18.81h1l-.56-.83a11.88,11.88,0,0,1-6.74,2c-4.22,0-8.49-2-11.68-4.12a38.66,38.66,0,0,1-3.84-2.87c-.46-.39-.82-.72-1.06-.94l-.27-.26-.09-.08-.71.71.92-.4s-.1-.22-.27-.64c-1.23-3-6.2-16-6.19-29.93C26,474,27.61,465.8,32.37,459a31,31,0,0,1,5.13-5.87c2.69-2.29,5-3.08,7.06-3.08A8.62,8.62,0,0,1,49,451.37,17.14,17.14,0,0,1,53.85,456a23.62,23.62,0,0,1,1.3,2c.15.26.26.46.33.6l.08.16,0,0,.9-.44h-1v12h1l.4-.92Z"/>
  <path class="cls-6" d="M231.24,590.21l-58.65-39.1V525.49h-11s32.33-166.16,22.78-201.85C184.36,323.63,244.17,460.58,231.24,590.21Z"/>
  <path d="M231.24,590.21l.56-.83-58.2-38.8V524.49h-12v1l1,.19s6.14-31.55,12.28-70.11,12.28-84.13,12.28-112.3c0-8.33-.53-15.14-1.8-19.89l-1,.26-.92.4.54,1.27c5.33,12.62,48.1,117.43,48.09,226.9,0,12.62-.57,25.29-1.82,37.9l1,.1.56-.83-.56.83,1,.1c1.26-12.68,1.83-25.42,1.83-38.1,0-117.31-48.78-228.91-48.8-229l-1.88.66c1.19,4.43,1.73,11.14,1.73,19.38,0,27.91-6.12,73.46-12.26,112-3.07,19.26-6.13,36.78-8.43,49.47-1.15,6.35-2.11,11.49-2.78,15s-1.05,5.52-1.05,5.52l-.23,1.19h11.22v25.16L232.07,592l.17-1.66Z"/>
  <path class="cls-6" d="M71.87,569.11,109,545.51s13.8-217.39,29.71-239.07C138.73,306.43,63.38,446,71.87,569.11Z"/>
  <path d="M71.87,569.11l.54.84L110,546.08l0-.51s.22-3.39.62-9.38c1.43-20.95,5.22-73.62,10.39-123.41,2.59-24.89,5.52-49.07,8.67-68.19,1.58-9.56,3.21-17.85,4.87-24.32s3.39-11.13,5-13.25l-.81-.59-.88-.48c0,.07-67.62,125.17-67.64,243.33q0,10,.67,19.89l.12,1.68,1.42-.9-.54-.84,1-.07q-.68-9.81-.66-19.75C72.2,490.58,89,430,105.91,384c8.43-23,16.86-42.25,23.18-55.79,3.16-6.77,5.79-12.11,7.64-15.75.92-1.82,1.64-3.22,2.14-4.16s.75-1.42.75-1.42l-1.69-1.07a25.94,25.94,0,0,0-3.09,6.52c-3.71,10.6-7.2,30.37-10.4,54.19C114.84,438,108,545.43,108,545.44l1,.06-.54-.84-37.14,23.6.54.84,1-.07Z"/>
  <path class="cls-7" d="M161.58,396.18s-9.06,61.65-9.06,93.43c0,0,0,19.05-13.8,19.05,0,0-19.1,1.16-15.92-19.05,0,0,6.37-88.13,8.49-93.43,0,0,.19-15.73,16.54-15.82C147.84,380.35,163.58,381.65,161.58,396.18Z"/>
  <path d="M161.58,396.18l-1-.15s-9.06,61.65-9.07,93.58v.19a30.1,30.1,0,0,1-2,9.85,14.38,14.38,0,0,1-3.84,5.6,10.37,10.37,0,0,1-7,2.41h-.56a18.65,18.65,0,0,1-8.45-2,11.38,11.38,0,0,1-4.35-4.06,14.4,14.4,0,0,1-1.9-7.69,26.61,26.61,0,0,1,.35-4.14v-.08s.1-1.38.28-3.8c.62-8.47,2.21-29.71,3.88-49.42.83-9.85,1.68-19.32,2.44-26.61.38-3.64.74-6.74,1.05-9.06.16-1.16.31-2.12.44-2.86a9.3,9.3,0,0,1,.33-1.4l.07-.17V396a18.23,18.23,0,0,1,2.41-8,13.09,13.09,0,0,1,4.6-4.62,16.65,16.65,0,0,1,8.54-2.1v-1l-.08,1h.13a19.47,19.47,0,0,1,7.06,2.31,11.91,11.91,0,0,1,4,3.69,11.21,11.21,0,0,1,1.77,6.34,17.13,17.13,0,0,1-.17,2.33h0l1,.15,1,.14a19.07,19.07,0,0,0,.19-2.6,13.11,13.11,0,0,0-2.36-7.82,15.84,15.84,0,0,0-7.83-5.48,20.93,20.93,0,0,0-4.65-1.06h-.09a18.35,18.35,0,0,0-10,2.67,16.24,16.24,0,0,0-6.55,8.86,19.61,19.61,0,0,0-1,5.28h1l-.93-.37a12.14,12.14,0,0,0-.5,2.12c-.62,3.59-1.43,11.05-2.3,20.31-2.61,27.73-5.76,71.3-5.76,71.3l1,.07-1-.16a28.62,28.62,0,0,0-.37,4.45,16.4,16.4,0,0,0,2.2,8.73,14.27,14.27,0,0,0,8,6,21.81,21.81,0,0,0,6.54,1h.62l-.06-1v1a12.35,12.35,0,0,0,8.65-3.24c3.15-2.92,4.64-7.12,5.39-10.57a32.48,32.48,0,0,0,.75-6.24c0-15.81,2.26-39.15,4.52-58.52,1.13-9.68,2.26-18.38,3.11-24.65.42-3.14.78-5.67,1-7.41s.39-2.7.39-2.71h0Z"/>
  <path class="cls-8" d="M186,259.54,262.68,1h21l39.37,79.74,9.34,42.71,16.47,42.45s8.24,45.08,21.24,69.38c0,0,16.7,89.64,12.75,135.43,0,0-6.73,88.29-11.91,100l-22.12.8s-3.26-49.51-26.53-75.34l-15.59.19v82.08l-43-1S245.07,323.57,186,259.54Z"/>
  <path d="M186,259.54l1,.28L263.42,2h19.65l39,79.07,9.33,42.66,16.5,42.53.93-.36-1,.18s2.07,11.3,5.76,25.65,9,31.73,15.58,44l.88-.47-1,.18s.21,1.11.57,3.17c2.55,14.35,12.77,74.47,12.77,116.24,0,5.64-.19,10.95-.6,15.75h0s-.1,1.38-.3,3.81c-.68,8.52-2.45,30-4.61,50.62-1.08,10.31-2.26,20.4-3.46,28.55-.6,4.07-1.19,7.66-1.78,10.53a34.59,34.59,0,0,1-1.68,6.18l.92.4,0-1-22.12.8,0,1,1-.07a188.06,188.06,0,0,0-4.56-28.15c-3.75-15.69-10.4-34.66-22.22-47.8l-.3-.34-17,.21v82l-42-1,0,1,1-.12A726.4,726.4,0,0,0,248,392.25c-12.07-46.54-31.48-101.12-61.24-133.39l-.74.68,1,.28-1-.28-.74.68C214.57,292,234,346.35,246,392.75c6,23.2,10.18,44.41,12.84,59.82,1.33,7.7,2.29,14,2.91,18.28.31,2.16.54,3.84.69,5s.22,1.73.22,1.73l.1.86,44.93,1V397.36l14.61-.18v-1l-.74.67c11.45,12.69,18.06,31.4,21.76,46.92A198.85,198.85,0,0,1,347,463.51c.33,2.51.55,4.53.68,5.93s.18,2.15.18,2.15l.06,1,23.72-.86.25-.57a41.69,41.69,0,0,0,2.07-7.88c2.4-12.46,4.87-35.55,6.76-55.55s3.17-36.91,3.17-36.91h0c.42-4.88.61-10.24.61-15.92,0-48.06-13.37-119.74-13.37-119.77l0-.15-.07-.14c-6.43-12-11.74-29.31-15.41-43.58-1.84-7.14-3.27-13.52-4.25-18.11-.49-2.3-.86-4.15-1.11-5.42s-.38-2-.38-2l0-.1-16.48-42.47L324,80.41,284.32,0H261.93L184.85,259.8l.39.42Z"/>
  <path class="cls-9" d="M305.72,651.6l-43,55.05-18.89-4.86s15.29-44.68,19.89-102.93l40.59-2.12Z"/>
  <path d="M305.72,651.6l-.79-.62-42.64,54.53L244,700.83l-.25,1,.95.32s15.33-44.8,19.94-103.18l-1-.08.05,1,39.57-2.07,1.42,53.84,1,0-.79-.62.79.62,1,0-1.47-55.89-42.5,2.22-.07.87A484.4,484.4,0,0,1,251,671.94c-2.19,9.21-4.25,16.6-5.75,21.68-.75,2.54-1.36,4.51-1.79,5.84s-.66,2-.66,2l-.35,1,20.57,5.29,43.67-55.85v-.36Z"/>
</svg>
